<?xml version="1.0" encoding="UTF-8"?>
<svg id="Layer_2" data-name="Layer 2" xmlns="http://www.w3.org/2000/svg" viewBox="0 0 1000 200.29">
  <defs>
    <style>
      .cls-1 {
        fill: #fff;
      }
    </style>
  </defs>
  <g id="Layer_1-2" data-name="Layer 1">
    <g>
      <path class="cls-1" d="M215.34,124.99c1.52,19.1,13.9-5.33,19.55-9.44,4.15-8.27-9.67-12.72-3.19-22.08,2.13-2.52,2.73-4.73,2.6-7.86-1.59-12.59,8.8-6.8,12.13-.08.99,3,3.7,4.51,5.39,1-1.11-19.31-5.24-9.49,3.36-30.48.28-7.66-6.05-16.48.8-23.14,3.06-4.53.25-12.03,5.88-15.18,3.24-.69,13.87-1.58,9.57,4.62,2.14,1.21,3.06,3.96,4.17,6.45,3.61,2.95,10.15-6.01,9.8-9.48-1.78-10.41,4.86-9.65,12.8-7.91,2.7.58,2.24,5.51,4.09,5.22.79-.99,8.63-7.38,7.21-2.19-8.28,3.09-.91,13.54,1.76,9.65,2.41-2.65,6.79-7.5,9.22-10.25,3.75-3.35-4.17-10.8,2.23-12.26,10.92-1.71,6.49.78,10.75,6.53.7,1.42-.92,4.57,1.68,5.3,8.17,1.37,2.08-9.07,3.71-12.07,3.17-.93,10.22-2.02,11.35-.74.33,1.43-1.27,3.67.2,4.83,5.95-.79,10.6-.3,12.55,6.6.62,5.81-2.26,20.09-4.12,5.88-1.71-2.2-.63,7.06.67,7.71,2.16,2.73,5.61,3.76,8.52,2.22,6.82,1.24,5.16,11.74,9.2,14.56,5.67,2.1,21.06-3.04,18.03,6.31,2.89,5.96,6.85,12.72,8.99,18.91,2.53,6.39-.07,14.27,5.26,19.26-1.59,7.27-13.28,22.8-17.39,29.55-.2.82-3.04,3.53-2.88,1.41.18-1,5.58-9.26,2.12-7.92-9.49,14.2-2.7,25.76-10.66,39.61,5.61,3.75,11.89,6.74,14.86,13.81,3.49,9.29-12.27,19.19-20.32,17.05-1.67-2.24,3.09-6.87-.9-7.53-3.21-.47-11.22-1.51-14.91-2.01-3.54-.69-1.03,1.76-.84,4.4-.52,7.37-22.1,14.66-16.96,2.58-11.71-5.19-4-12.9,4.74-21.56.72-.65,1.91-2.1,2.62-1.38.99,1.92,3.2,3.5,5.01,1.06,6.73-13.55-2.25-24.25,12.78-38.99,5.99-20.78-20.55,21.86-18.46-.74-13.9-10.2-.04-12.22-.02-21.37-2.04-.15-3.77.38-6.04-.56-6.19-1.44.27-2.96-1.06-5.78-1.14-1.41-16.22-7.72-13.51,0,1.07,3.97,5.5,6.56,5.53,10.81-1.75,6.11,1.5,14.29,1.13,20.08-.86.02-1.99-1.04-2.8-.27-.09,3.61-10.46,15.89-2.69,15.43,3.16-2.97,1.39-12.06,8.28-11.46,5.64,2.06,12.58,3.7,12.6,10.88,9.29,30.47-28.81,17.73-40.04,39.42-2.2,1.48-6.69,3.72-8.96,1.46-.63-1.11.33-3.19-.02-4.47-28.02-14.12,9.74-19.82,5.42-35.81-1.33-5.65-4.94-11.26-3.83-17.24,1.21-8.21,8.68-18.47,4.3-25.99-1.5-2.34-5.22-2.8-5.07.69.58,5.01-4.25,10.35-9.6,9.56-3.01-1.37,1.29-7.37-6-6.42-1.45,1.51.79,4.66.46,6.56-.73,6.89-11.97,12.54-14.19,3.51-6.24-7.35-10.74,1.97,7.89,9.06,2.58,2.08.27,11.19,2.41,16.17.76,2.6-4.23,2.14-2.93,4.68,3.33,4.12,11.67,6.42,10.02,13.11-1.13,8.13-3.33,27.39-14.64,20.7.35-2.46.45-7.04-3.32-5.44.25,5.65,1.38,11.9-5.7,14.88-9.93,5.58-13.92-4.62-8.3-3.04,2.79-1.63-1.71-2.94-3.56-2.84-12.13-2.74-1.84,6.28-9.08,8.16-16.88,5.99-4.85-1.17-14.97-5.36-7.15-4.23-1.77-12.02,1.36-16.99,1.84-4.88-3.21-1.33-4.47.91-4.12,5.42-6.34,16.38-13.92,14.39,6.46-10.43-11.82-1.27-10.87-22.76-.09-2.86.32-7.66-2.39-9.3-5.18,5.38-1.08,42.3-22.2,30.96.65-6.3-9.73-5.81-13.92-8.26,6.8,6.87-7.03,9.88-12.37,9.51-.92-.4-.26-2.26-.68-2.96-2.94-.69-1.94-.93-3.33-4.02-15-6.77-10.58-22.25-2.3-33.13-3.12-8.98-11.33,10.84-15.27,12.81,15.96,36.25-9.12,34.48-37.5,38.41-7.58,2.11-15.03,10.45-23.12,8.59-6.87-9.53-13.78-13.39-4.65-24.54,1-3.96,3-8.85,7.67-6.95,17.45,12.99,19.42-30.93,22.41-43.06.68-16.82-6.05,5.94-12.56,5.47-1.96.2-5.93,2.23-2.55,3.72,4.94,1.19,5.05,15.88-2.26,12.04-4.9,10.3-14.71,14.97-23.95,20.62-5.06,4.35-19.62,18.07-23.89,7.94-2.38-3.74-9.24-3.83-11.31-8.33-4.35-12.2,7.52-14.22,3.13-38.51-1.1-10.27,11.73-20.06,5.74-29.82-4.73-4.53-2.59,10.06-9.77,9.39-5.29.5-16.01-7.66-13.98-13.63,2.57-6.24,15.49-9.13,18.13-16.55-.33-3.62-1.5-5.79,3.84-5.6,2.96.32,2.29,4.55,4.36,5.9,11.58-3.83-2.97-21.85,9.58-29.88,1.7-3.25.7-8.23,5.93-8.16,7.65-1.17,7.52,3.19,14.92-1.5,6.1,3.86,9.95,10.4,10.32,17.87.18,4.94-.87,1.01-2.71.79-3.32,5.19-2.79,2.89-3.69-1.45,2.6,7.56-4.89,10.87-9.1,16.21-1.54,1.79-.31,5.22,2.15,3.18,2.11-1.85,2.22-5.54,4.71-6.73,16.83-5.27,30.06-3.42,26.89,17.11-15.33.41-8.09,8.62-22.5,14.4-4.3,2.01-15.73-.84-15.43,5.48,7.96-1.11,9.74,22.16,3.87,14.51,3.9,6.76-23.19,30.14-13.71,26.61,6.28-2.44,10.22-9.77,16-12.39,6.87-1.74,1.84-7.33,3.63-11.2,4.38.84,10.37,6.03,14.56,6.41,3.82-8.51-12.24-3.85-7.65-17.4,2.45-6.43,10.85-6.15,15.71-9.52,13.4-8.43,8.95-21.37,19.07-24.24,1.91-1.66,6.89-6.3,7.82-1.19.95,7.89,8.34.27,11.11,6.63,3.33,3.27-.53,7.88-2.6,10.21-1.16,1.37-2.19-2.55-2.51-1.48.16,3.46-4.9,13.64.32,13.43,21.15-9.71,8.31-17.47,23.01-21.99,5.37,1.12-4.86,8.18,11.62,7.95-.38,6.14-3.01,14.74-1.2,21.45,1.3,4.44-5.9,8.89-3.14,11.29,11.81,5.1-6.59,8.6-.49,10.51,8.8-1.24,5.88,1.97,11.64,4.48,3.96-2.55,2.41-9.22,5.25-12.85.96-2.78,8.75-7.49,5.39-10.15-13.55,1.13-20.24-10.39-10-19.6,23.18-3.58,7.36-21.15,21.61-29.43,3.68-1.5-.21-6.85,1.32-9.19,1.2-2.61,8.86-3.11,7.08.97-1.6,2.91.98,3.52,2.94,5.63,1.59,1.46,1.02,5.98,2.56,6.66,13.05-1.11,1.66-20.27,17.52-16.92,3.28.29,3.35,3.57,3.44,6.15,1.32,5.36,7.1-3.26,10.46,2.68,3.86,2.63,3.89,27.89-.19,13.03-.63-4.15-1.16-3.6-1.8-.35-9.44,19.77,5.17,9.76,2.74,17.63-9.26,1.98-1.09,15.73-6.37,22.01-16.76,17.67,2.25,9.93-4.12,15.74ZM350.13,55.12c-12.12-3.89-7.23-22.37-17.85-25.72-8.85-2.59,3.84,18.8-.24,24.93-.38,2.79,1.35,2.61,4.01,3.05,16.2,1.49,23.98,17.17,16.38,31.7-2.05,9.44,9.93,9.19,12.81,1.38.37-18.07-10.75-15.76,8.77-30.59,2.74-2.6,1.39-6.83,3.25-9.41,2.73-4.21-4.74-2.83-6.76-2.27-2.02,8.39-19.66,22.48-20.35,6.94ZM293.05,62.91c4.1,1.63,11.19,19.84,13.89,9.03-5.47-9.91,4.38-21.07.02-30.05-6.84-7.62-6.89,13.87-17.7,13.22-1.8.45-3.52,2.48-4.52.22-1.12-5.51-4.95-9.1-10.96-9.97-1.82-.85-5.96,1.11-2.14,1.58,4.03,3.59,2.88,13.83,9.08,14.37,2.02,8.21-10.38,14.18-8.25,22,3.67,4.32,13.96-5.28,14.05-9.07-.43-2.22-1.31-5.11-1.64-7.23-.15-1.14.69-.4,1.26-.53,1.27-2.29,3.37-5.82,6.9-3.6ZM334.91,59.85c-5.34-3.39-7.2,2.26-9.16,6.23,4.98,4.05,7.78-2,9.16-6.23ZM193.92,75.76c-4.58-.76-1.57,11.78-2.91,14.6-1.4,7.9-6.28,13.4-8.54,20.59,13.38,10.48,18.83-25.06,11.45-35.19ZM398.39,98.31c1.92-3.12,12.26-24.94,1.43-16.32-3.61,9.99-14.85,11.05-12.22,13.79,8.35,5.51-.03,5.96,10.79,2.53ZM382.6,87.57c-2.66-2.9-7.46,3.13-4.93,5.19,2.19-1.76,3.24-5.23,4.63-.63.96,2.42.77-3.59.31-4.56ZM249.44,155.49c6.28-7.39-3.26-19.51-3.42-27.52-1.01-6.25,10.32-21.54-.14-22.63-2.53,11.44-1.79,24.7-3.38,36.17-1.46,2.99-7.55,5.17-7.2,9.03.86,1.41,3.8-1.64,5.1-1.78,3.75.67,3.71,11.98,9.03,6.74ZM123.48,140.73c-7.26-4.41-6.39-11.85-2.55-18.78,3.42-4.84-.26-13.33-5.82-11.07.33,10.62-4.27,22.8-2.13,33.54.5,2.37,3.66,5.21,4.71,6.99,1.31-2.61,7.57-7,5.79-10.68ZM277.57,126.26c.57-1.67.21-6,.14-7.65-1.93-1.73-1.82,8.84-.14,7.65ZM337.4,133.03c.49-1.44,2.19-7.32.99-7.83-2.18.84-3.57,7.09-.99,7.83ZM167.9,150.54c9.04.29,18.22-12.17,10.27-18.52-1.28-.17-1.4,4.56-1.77,5.6-.79,4.81-7.61,8.68-8.5,12.91ZM272.4,146.31c-.07-1.01.16-6.65-1.05-6.37-3.34,2.25-4.51,7.98,1.05,6.37ZM160.86,164.9c-1.31-.65-4.67,1.11-3.82,2.84.92,2.12,5.6-.99,3.82-2.84Z"/>
      <path class="cls-1" d="M714.34,23.23c2.72,7.81,3.36.31,10.3,4.03,13.95,10.28,16.4,37.17,2.54,48.88-2.99,7.18-1.67,15.72-5.64,22.66-9.01,13.59-20.65,34.25-7.82,48.55,11.68,1.91,19.97,3.16,4.74-6.31-6.86-7.73-2.27-18.48,3.74-25.17,1.24-2.77-2.71-4.7-1.52-7.7,1.01-3.28,3.43-.29,5.75-.72,1.35-.22,2.75-.55,4.13-.2,4.39-.21,8.23,8.56,10.81,5.1,3.73-5,6.35-14.76,11.8-19.14.8-3.01-10.54-.72-11.44-10.22-.89-8.69,13.59-10.55-.43-16.09-4.17-4.78,4.59-9.1,5.74-2.71,1.16,2.89,4.91-.67,6.98-.78,3.62-.94,2.13,8.43,8.88,4.61,5.39-4.28,6.41-13.6,7.03-19.73-.4-2.52-4.55-5.5-2.71-7.98,6.75,2.54,16.18,1.33,20.68,8.65,1.89,1.84,1.03,6.21,4.37,5.82,8.25-2.79-4.18-6.17-4.63-10.03-.04-6.14,2.31.11,4.85.65,11.9-.97,24.18,6.19,21.27,19.65-12.32,20.66-2.99,15.62-11.65,35.17-7.24,14.79-15.61,10.19-2.37,25.74,4.13-1.97,21.56-12.22,11.98-17.2-7.06-5.97-2.26-15.52,5.3-17.6-2.07-16.94,11.56,5.58,21.97-12.36,8.94-9.83,1.82-5.83,3.85-11.56,8.27-4.05,18.85,6.81,18.48,15.39.38,8.96-6.66,14.55-8.43,20.92,2.53,13.21,2.12,26.26-2.23,39.03-1.38,3.8,1.16,6.33,4.31,2.69,8.37-10.43,3.89-26.38,13.29-36,3.2-3.15,7.86-5.22,8.72-10.02.32-6.16,2.14-11.57,5.47-16.12-5.3-6.87-1.14-6.88,5.37-7.41,6.76-2.02,6.5,6.52,12.66,2.65,9.59-1.71-4.05-6.34,7.93-9.29,14.02.4,11.36,16.32,18.34,22,9.95,13.78,14.94-16.55,16.27-22.7,7.95-4.1,13.81,6.79,20.73,7.65,3.65,5.74.64-1.23,1.3-3.21,7.98-6.81,20.55,4.49,19.87,13.66.51,7.3-5.75,12.24-8.05,18.53,5.74,29.88-21.6,27.46-10.79,40.26,2.37,2.02,4.27,7.95,7.64,4.78,4.27-3.75,11.55-6.39,8.62-13.27-.06-2.61,2.76-2.54,4.71-2.35,12.17,1.13,15.91,12.82,10.51,22.83-3.6,8.14-13.43,10.01-18.41,16.62-3.95,5.24-7.24,13.58-13.76,15.8-28.19-8.59-6.24-25.25-17.11-34.32-4.03,1.93-6.73,19.9-11.04,23.71-2.99,3.26-13.02,10.3-16,4.73,2.47-2.57,5.14-4.73-.15-6.25-18.47-12.6-8.33-1.51-22.32.51-2.35-.95-.56-5.02-2.61-6.73-18.55-7.92-4.81-25.35-1.16-38.23,7.33-.26,9.83-.31,14.26,5.98,7.14-.18,8.2-15.57,13.54-18.76,1.06-.94,1.05-2.03-.5-2.92-15.32-1.52-4.14-20.79-12.91-18.91-7.48,13.69-1.68-.49-9.91,10.11-7.64,3.77-8.04,15.92-13.19,23.84-10.17,13.07-14.34,10.39-16.69,28.65-2.1,5.3-7.83,7.08-11.9,10.38-4.34,5.16-10.91,14.85-18.72,10.53-.47-1.23,1.29-2.98,1.04-4.26-21.33-9.96-1.13-20.89-8.82-38.31-5.88-10.11,6.25-22.42,1.09-31.3-8.67-6.76-4.35,22.74-9.53,27.8-1.3,4.62-5.88,5.28-9.25,7.8-7.85,5.04-11.63,20.98-21.07,20.54-13.74-2.95-15.18-18.07-11.92-29.03,1.01-5.09-7.03-8.31-6.92-1.94-.49,6.62-2.66,14.46-6.5,19.91-3.56,5.09-16.19,11.79-15.2,1.11-1.8-2.55-13.69-9.42-15.45-7.85.23,10.17-5.9,2.81-4.34,11.65,2.24,10.06-8.23,20.36-18.11,17.77-2.49-1.06-1.41-4.52-3.15-6.03-10.89-3.28-1.91,5.61-6.92,6.85-3.75,1.2-10.39,4.35-14.48,5.07-5.25-2.81,3.84-9.33-10.49-6.84-1.06.4-1.6,2.1.01,2.21,7.49,3.37-6.58,8.18-10.71,8.34-4.54.19-2.86-3.72-1.95-6.41-6.4-3.1-8.55-6.84-4.92-13.91,4.67-5.54,5.34-10.37-.39-14.85-.72-1.34-2.54-7.35.07-4.53,8.38,10.52,9.37,3.74,18.2,6.09,1.13,2.45,1.22,6.06,4.93,3.24,3.79-9.99-4.23-17.6,5.73-27.25,3.73-11.22-1.17-23.51,5.21-35.26,2.46-4.23,25.04-38.85,11.48-30.94-1.57,5.77-11.44,21.69-16.86,17.82-.94-1.53.64-4.14-.22-5.65-3.57-1.19-1.82,6.87-5,8.09-3.87,3.01-5.3-1.24-5.91-4.61-14.17-16.82,21.92-25.58.19-31.16-2.15-.59,2.66-4.28,3.6-4.64,19.18-7.57,3.94,25.3,30.51-4.34,5.28-3.66,1.29-8.42-3.39-9.9-6.66-3.47,1.88-5.67,4.79-4.06ZM784.76,65.68c-3.56,10.5-8.76,20.17-15.76,28.65,6.95,23.5,27.51-23.48,15.76-28.65ZM956.99,90.06c-7.95,6.07-7.42,21.3-17.13,27.95,2.75,28.67,27.47-21.48,17.13-27.95ZM758.72,128.64c7.36-5.15.99-17.82-2.57-8.18-.87,3.86-4.06,5.57-7.3,7.95-4.53,4.53,8.43,3.35,9.88.23ZM931.58,142.94c-1.11-.68-3.03-1.05-4.14-.22.54,4.48-6.07,9.32-7.57,11.79,4.88,6.23,17.45-5.49,11.71-11.57Z"/>
      <path class="cls-1" d="M544.34,58.98c.24,5.33,6.67,4.34,9.47,7.08,2.06,2.39,5.14.23,6.39,4.34,1.69,2.02,2.24,4.35,1.77,6.9-.7,3.46,10.24.19,7.79,4.46-11.26-1.13,0,17.49-15.82,25.7-.95.55-2.36,1.12-2.44,2.25,10.21,12.73-5.54,24.29-4.83,41.55-13.31,29.19.84,25.63,5.58.83,4.85-9,6.89-10.7,3.88-21.06,6.14,3.05,19.96,5.54,22.02,13.47,1.34,5.99-.53,13.75,2.91,12.78,1.89-.71,4.75-2.39,4.22-4.78-8.49-17.75,2.56-6.93,11.62-4.72,5,18.73,13.54,4.83,9.74-6.84-8.46-17.31-49.45-6.77-40.72-35.13,5.76-9.79,8.15-5.06,12.48-19.87.94-3.16,5.08-4.8,4.91-8.28.38-3.49-10.64-6.17-4.1-8.79,1.96-.82,5.49-4.19,7.31-1.49,2.59,7.44,9.43,4.84,13.72,9.51,2.28,1.83,4.09,7.15,7.54,5.64,8.05-4.88,4.65,3.44,10.41,3.87,7.75-.17,11.21,3.92,14.68,9.86,2.6,1.53,2.03,4.06,2.57,6.8,3.24,6.55-8.4,24.24-16.01,18.82.69-5.67-12.38-15.24-9.8-4.23,1.61,5.23,8.51,4.58,11.97,7.34,2.84,7.08,13.54,10.86,12.22,19.64-6.66,22.6,2.31,23.09-23.66,33.32-20.31,29.56-20.95-1.3-40.58-7.91-2.31-.12-2.85,4.18-4.94,3.5-.89-3.07-5.28-7.1-5.75-1.35.11,2.98-1,8.47-.26,10.35,2.56-3.35,2.55.27,2.95,2.26,2.2-.27,3.18,5.42.24,4.6-6.31-5.69-8.73,7.39-15.54,5.25-2.51-.27-4.66,3.59-7.41,1.67-3.49-2.62,3.78-6.83-.29-7.32-32.42-3.29-2.88-4.35-23.18,8.85-2.67,1.05-5.73,2.3-8.47,2.45-2.73-4.52-8.33-10.02-7.62-14.65,1.21-6.35,8.97-8.13,8.49-11.74-3.32-5.99,2.28-9.77,4.11-4.16.29,7.37,6.6,2.81,7.98-1.34,3.06-8.06-2.36-19.82,3.84-27.17,2.66-1.6,12.89-17.03,5.05-14.53-7.27,15.34-26.66,5.4-21.07-8.1,7.31-8.61,8.9-1.95,4.51-13.26.01-11.68,5.19,8.82,10.52,5.02,12.36-1.01,3.87-14.41,2.37-21,1.29-6.6,13.85-14.05,15.61-19.72.9-2.74-2.82-1.93-3.97-3.97-.7-1.73-4.33-5.67-1.93-6.46,2.18-.14,8.08-1.68,9.5-.24ZM597.8,113.67c-1.57-2.87-3.72-20.34-8.32-11.2-3.27,14.45,16.84,21.2,8.32,11.2Z"/>
      <path class="cls-1" d="M426.14,72.12c.95,5.15,5.49,6.61,9.86,7.33,2.66.6,4.31,6.13,7.24,4.6,2.27-4.75,6.83-7.46,12.6-6.84,5.91.38.92,5.43,6.59,8.24,3.74,2.04,10.37,3.28,14.39,5.61,4.81,3.11,5.95,16.34-1.49,16.49-3.2,6.47-6.13,12.49-14.07,14.19-4.34,2.72-4.93-1.7-4.21-5-.59-2.09-4.8-1.99-6.85-3.5-1.75-.83-9.83-6.31-10.22-2.92,1.81,4.88-.97,10.19-6.82,10.08-3.67.11-3.66-4.35-5.37-6.63-4.11-5.16-4.38,2.78-4.73,5.66-.96,3.15-3.8,6-4.39,9.82-.76,4.89,4.64,1.21,4.44,6.69.28,4.73.18,12.64,3.38,15.12,1,.02,1.91-.84,2.39-1.6,1.67.09.79,5.97,1.78,7.71.31.55.6-.71,1.47-1.11,7.06.85,10.37-7.24,15.46-11.06,7.17-3.79,2.02-7.32,2.25-13.11-.8-3.19,2.13-5.25,4.85-3.64,1.43.83-.42,5.04,2.14,4.9,4.52-1.12,8.19,6.55,12.8,2.55,7.46,3.22,7.62,19.11.44,23.48-6.67,9.44-8.93,12.37-20.13,14.5-7.03,3.66-13.82,9.2-21.33,11.63-1.46-.03-2.32-3.29-3.68-1.59-1.06,1.07-.46-1.82.54-2.94,4.36-2.54.48-3.26-2.36-2.37-2.31,2.61-2.61.49-4.32-1.28-37.52-39.61-32.7-36.71-4.95-83.28,2.37-4.33,8.13-7.37,6.93-12.9.2-1.59,2.25-.82,3.3-1.21,2.18-2.27-4.34-.62-5.11-1.59-3.16-4.2,4.11-7.07,7.17-6.01Z"/>
      <path class="cls-1" d="M926.28,64.24c1.8,4.2-3.97,7.23-7.43,5.81-1.22-3.64,4.17-7.57,7.43-5.81Z"/>
      <path class="cls-1" d="M224.5,113.25c.74,3.27-3.34,8.09-6.52,6.17.32-1.66,4.49-7.76,6.52-6.17Z"/>
      <path class="cls-1" d="M531.69,69.49c-.08,6.12-6.9,2.61-6.82-1.2,1.2-.83,5.65.48,6.82,1.2Z"/>
      <path class="cls-1" d="M155.39,78.68c-.83,3.22-5.84,2.54-8.62,3.6-2.78-3.58,5.89-5.24,8.62-3.6Z"/>
      <path class="cls-1" d="M62.46,161.17c.29,2.3-2.71,5.65-5.08,4.96-1.63-3.49,2.19-5.3,5.08-4.96Z"/>
      <path class="cls-1" d="M869.23,73.18c-.12,1.04-2.07,3.8-2.97,4.1-6.95-.46-1.55-7.73,2.97-4.1Z"/>
      <path class="cls-1" d="M118.3,67.99c1.06,5.71-2.48,4.09-5.04.88-.26-.88,4.26-.86,5.04-.88Z"/>
      <path class="cls-1" d="M519.69,81.32c1.7,5.03-7.66,1.13-4.79-1.45.79.32,3.93.75,4.79,1.45Z"/>
      <path class="cls-1" d="M248.46,28.03c0,1.15-.4,5.09-1.99,5.28-3.05-1.44-1.48-6.22,1.99-5.28Z"/>
      <path class="cls-1" d="M74.59,159.5c-.78-1.83.15-5.24,2.3-5.16.98,1.7-.22,5.38-2.3,5.16Z"/>
      <path class="cls-1" d="M.11,79.79c-.65-1.95,1.77-4.93,3.72-5.21.78,1.94-1.78,4.95-3.72,5.21Z"/>
      <path class="cls-1" d="M168.97,61.16c-.78-1.83.15-5.24,2.3-5.16.98,1.7-.22,5.38-2.3,5.16Z"/>
    </g>
  </g>
</svg>